<?xml version="1.0" encoding="utf-8"?>
<!-- Generator: Adobe Illustrator 16.0.0, SVG Export Plug-In . SVG Version: 6.00 Build 0)  -->
<!DOCTYPE svg PUBLIC "-//W3C//DTD SVG 1.1//EN" "http://www.w3.org/Graphics/SVG/1.1/DTD/svg11.dtd">
<svg version="1.1" id="Layer_1" xmlns="http://www.w3.org/2000/svg" xmlns:xlink="http://www.w3.org/1999/xlink" x="0px" y="0px"
	 width="1024px" height="1098.727px" viewBox="0 0 1024 1098.727" enable-background="new 0 0 1024 1098.727" xml:space="preserve">
<rect x="-0.001" y="1.615" fill-rule="evenodd" clip-rule="evenodd" fill="#FFFFFF" width="1024.003" height="1024.002"/>
<g>
	<rect x="0.001" y="1024.002" fill="#132028" width="1024.003" height="74.725"/>
	<g>
		<g>
			<path fill="#FFFFFF" d="M368.769,1052.223h3.184c2.504,0,4.569,0.658,6.19,1.978c1.633,1.306,2.448,3.185,2.448,5.635
				c0,2.522-0.807,4.446-2.431,5.779c-1.615,1.336-3.707,2.002-6.266,2.002h-3.125V1052.223z M370.69,1065.866h0.669
				c0.999,0,1.937-0.104,2.824-0.304c0.88-0.194,1.657-0.532,2.316-1.002c0.662-0.467,1.19-1.081,1.581-1.834
				c0.397-0.758,0.593-1.695,0.593-2.811c0-1.099-0.195-2.036-0.583-2.828c-0.386-0.78-0.928-1.391-1.624-1.831
				c-0.695-0.442-1.458-0.771-2.299-0.979c-0.836-0.2-1.768-0.311-2.809-0.311h-0.669V1065.866z"/>
			<path fill="#FFFFFF" d="M383.41,1063.145c0.026,0.852,0.302,1.598,0.818,2.229c0.532,0.624,1.216,0.935,2.061,0.935
				c0.67,0,1.217-0.146,1.647-0.456c0.428-0.308,0.836-0.775,1.216-1.401l1.55,0.881c-0.448,0.817-1.063,1.454-1.848,1.918
				c-0.78,0.46-1.645,0.699-2.584,0.699c-1.427,0-2.573-0.479-3.428-1.431c-0.847-0.971-1.267-2.164-1.267-3.595
				c0-1.505,0.399-2.754,1.204-3.724c0.791-0.951,1.938-1.427,3.453-1.427c1.47,0,2.578,0.476,3.33,1.427
				c0.761,0.953,1.141,2.17,1.141,3.662v0.283H383.41z M388.867,1061.755c-0.112-0.735-0.386-1.322-0.848-1.745
				c-0.459-0.426-1.053-0.652-1.788-0.652c-0.354,0-0.685,0.063-0.99,0.182c-0.31,0.111-0.578,0.285-0.823,0.495
				c-0.23,0.224-0.43,0.485-0.587,0.773c-0.158,0.291-0.262,0.614-0.315,0.947H388.867z"/>
			<path fill="#FFFFFF" d="M396.115,1060.252c-0.277-0.564-0.681-0.84-1.222-0.84c-0.257,0-0.492,0.086-0.698,0.271
				c-0.206,0.182-0.304,0.412-0.304,0.666c0,0.246,0.077,0.451,0.234,0.616c0.157,0.173,0.37,0.335,0.639,0.487
				c0.18,0.078,0.315,0.146,0.412,0.188c0.092,0.05,0.252,0.121,0.47,0.216c0.109,0.052,0.206,0.103,0.289,0.124
				c0.077,0.029,0.139,0.047,0.179,0.083c0.68,0.31,1.219,0.677,1.614,1.081c0.396,0.411,0.591,0.953,0.591,1.639
				c0,0.899-0.325,1.652-0.979,2.262c-0.639,0.605-1.405,0.903-2.31,0.903c-0.364,0-0.721-0.054-1.058-0.156
				c-0.344-0.101-0.662-0.245-0.952-0.431c-0.294-0.19-0.548-0.405-0.779-0.672c-0.223-0.267-0.398-0.564-0.514-0.895l1.572-0.707
				c0.443,0.813,1.025,1.22,1.73,1.22c0.29,0,0.554-0.075,0.801-0.229c0.243-0.156,0.422-0.356,0.54-0.6
				c0.115-0.237,0.139-0.491,0.071-0.771c-0.067-0.281-0.282-0.55-0.634-0.789l-1.799-0.961c-0.315-0.162-0.582-0.317-0.815-0.484
				c-0.23-0.17-0.424-0.346-0.571-0.526c-0.15-0.187-0.263-0.388-0.335-0.612c-0.073-0.223-0.114-0.484-0.114-0.79
				c0-0.774,0.27-1.42,0.82-1.957c0.54-0.547,1.21-0.816,2-0.816c1.196,0,2.068,0.561,2.614,1.675L396.115,1060.252z"/>
			<path fill="#FFFFFF" d="M402.714,1053.688c0,0.344-0.123,0.633-0.37,0.885c-0.245,0.242-0.544,0.353-0.899,0.353
				c-0.356,0-0.651-0.11-0.897-0.353c-0.244-0.252-0.368-0.541-0.368-0.885c0-0.354,0.124-0.652,0.368-0.914
				c0.246-0.254,0.542-0.369,0.897-0.369c0.354,0,0.654,0.115,0.899,0.369C402.591,1053.035,402.714,1053.334,402.714,1053.688z
				 M402.361,1067.616h-1.84v-9.561h1.84V1067.616z"/>
			<path fill="#FFFFFF" d="M414.255,1067.438c0,1.795-0.346,3.184-1.025,4.181c-0.676,0.984-1.895,1.472-3.634,1.472
				c-1.346,0-2.451-0.388-3.308-1.166c-0.844-0.775-1.285-1.828-1.308-3.161h1.833c0,0.854,0.269,1.513,0.79,1.989
				c0.521,0.474,1.213,0.705,2.076,0.705c1.046,0,1.764-0.309,2.153-0.919c0.385-0.616,0.58-1.482,0.58-2.59v-1.823h-0.038
				c-0.383,0.574-0.854,1.021-1.419,1.338c-0.566,0.325-1.177,0.485-1.828,0.485c-1.418,0-2.533-0.498-3.352-1.493
				c-0.814-0.998-1.224-2.225-1.224-3.678c0-1.381,0.414-2.551,1.244-3.516c0.836-0.99,1.914-1.489,3.248-1.489
				c1.406,0,2.515,0.644,3.332,1.923h0.038v-1.64h1.843V1067.438z M409.411,1066.308c0.966,0,1.722-0.327,2.266-1.002
				c0.561-0.674,0.837-1.503,0.837-2.469c0-0.948-0.277-1.765-0.837-2.433c-0.544-0.663-1.3-0.992-2.266-0.992
				c-0.912,0-1.646,0.331-2.207,1.018c-0.54,0.668-0.816,1.465-0.816,2.407c0,0.966,0.276,1.791,0.816,2.45
				C407.766,1065.969,408.499,1066.308,409.411,1066.308z"/>
			<path fill="#FFFFFF" d="M418.485,1059.342h0.032c0.276-0.499,0.674-0.893,1.19-1.159c0.513-0.274,1.083-0.41,1.693-0.41
				c0.626,0,1.155,0.099,1.593,0.283c0.438,0.192,0.786,0.466,1.054,0.82c0.264,0.354,0.455,0.79,0.566,1.293
				c0.122,0.517,0.174,1.095,0.174,1.751v5.696h-1.833v-5.47c0-0.945-0.14-1.627-0.412-2.065c-0.272-0.451-0.836-0.669-1.693-0.669
				c-0.318,0-0.581,0.026-0.801,0.086c-0.218,0.063-0.405,0.152-0.569,0.263c-0.165,0.119-0.299,0.259-0.411,0.398
				c-0.104,0.149-0.21,0.315-0.301,0.495c-0.042,0.091-0.084,0.214-0.115,0.365c-0.035,0.145-0.063,0.302-0.09,0.464
				c-0.027,0.153-0.053,0.307-0.065,0.465c-0.01,0.162-0.015,0.28-0.015,0.378v0.902v4.388h-1.842v-9.561h1.842V1059.342z"/>
			<path fill="#FFFFFF" d="M433.083,1049.889h1.838v9.762h0.039c0.847-1.25,1.955-1.878,3.332-1.878
				c1.336,0,2.415,0.499,3.249,1.489c0.829,0.965,1.246,2.135,1.246,3.516c0,1.453-0.417,2.68-1.227,3.678
				c-0.822,0.995-1.932,1.493-3.347,1.493c-0.652,0-1.265-0.16-1.833-0.485c-0.563-0.317-1.037-0.764-1.42-1.338h-0.039v1.491
				h-1.838V1049.889z M437.838,1066.308c0.973,0,1.726-0.327,2.274-1.002c0.558-0.674,0.831-1.503,0.831-2.469
				c0-0.948-0.273-1.765-0.831-2.433c-0.548-0.663-1.301-0.992-2.274-0.992c-0.913,0-1.646,0.331-2.204,1.018
				c-0.545,0.668-0.815,1.465-0.815,2.407c0,0.966,0.27,1.791,0.815,2.45C436.193,1065.969,436.926,1066.308,437.838,1066.308z"/>
			<path fill="#FFFFFF" d="M443.05,1058.056h2.145l3.225,6.072l3-6.072h2.068l-7.741,15.034h-2.085l3.759-7.109L443.05,1058.056z"/>
			<path fill="#FFFFFF" d="M462.759,1063.753l-1.757,3.863h-2.064l7.355-16.053l7.348,16.053h-2.059l-1.752-3.863H462.759z
				 M466.293,1055.774l-2.743,6.227h5.477L466.293,1055.774z"/>
			<path fill="#FFFFFF" d="M476.648,1067.616h-1.836v-17.728h1.836V1067.616z"/>
			<path fill="#FFFFFF" d="M481.183,1067.616h-1.839v-17.728h1.839V1067.616z"/>
			<path fill="#FFFFFF" d="M488.166,1060.309v1.529h-4.472v-1.529H488.166z"/>
			<path fill="#FFFFFF" d="M495.308,1051.75c-0.568-0.26-0.975-0.389-1.219-0.389c-0.399,0-0.681,0.12-0.855,0.375
				c-0.18,0.25-0.302,0.558-0.371,0.931c-0.04,0.27-0.061,0.485-0.076,0.644c-0.003,0.16-0.003,0.371-0.003,0.648v4.097h2.524v1.716
				h-2.524v7.845h-1.844v-7.845h-0.833v-1.716h0.833v-4.65c0-2.507,1.031-3.765,3.091-3.765c0.448,0,0.875,0.09,1.277,0.248V1051.75
				z"/>
			<path fill="#FFFFFF" d="M498.148,1059.607h0.062c0.233-0.567,0.567-1.019,1.024-1.344c0.453-0.325,0.982-0.491,1.593-0.491
				c0.509,0,1.005,0.155,1.519,0.472l-0.841,1.672c-0.301-0.266-0.678-0.386-1.124-0.386c-0.947,0-1.568,0.383-1.882,1.144
				c-0.136,0.354-0.232,0.705-0.276,1.051c-0.043,0.343-0.075,0.75-0.075,1.198v4.693h-1.831v-9.561h1.831V1059.607z"/>
			<path fill="#FFFFFF" d="M504.468,1063.145c0.021,0.852,0.298,1.598,0.819,2.229c0.527,0.624,1.21,0.935,2.058,0.935
				c0.659,0,1.218-0.146,1.644-0.456c0.429-0.308,0.835-0.775,1.211-1.401l1.551,0.881c-0.444,0.817-1.059,1.454-1.842,1.918
				c-0.783,0.46-1.648,0.699-2.586,0.699c-1.424,0-2.572-0.479-3.424-1.431c-0.847-0.971-1.27-2.164-1.27-3.595
				c0-1.505,0.402-2.754,1.202-3.724c0.79-0.951,1.938-1.427,3.451-1.427c1.471,0,2.583,0.476,3.337,1.427
				c0.755,0.953,1.132,2.17,1.132,3.662v0.283H504.468z M509.919,1061.755c-0.111-0.735-0.393-1.322-0.847-1.745
				c-0.456-0.426-1.05-0.652-1.79-0.652c-0.354,0-0.681,0.063-0.991,0.182c-0.302,0.111-0.579,0.285-0.811,0.495
				c-0.243,0.224-0.439,0.485-0.603,0.773c-0.152,0.291-0.257,0.614-0.307,0.947H509.919z"/>
			<path fill="#FFFFFF" d="M514.439,1063.145c0.022,0.852,0.294,1.598,0.811,2.229c0.526,0.624,1.22,0.935,2.062,0.935
				c0.669,0,1.22-0.146,1.644-0.456c0.432-0.308,0.832-0.775,1.218-1.401l1.548,0.881c-0.44,0.817-1.053,1.454-1.845,1.918
				c-0.787,0.46-1.645,0.699-2.585,0.699c-1.435,0-2.573-0.479-3.437-1.431c-0.838-0.971-1.259-2.164-1.259-3.595
				c0-1.505,0.397-2.754,1.208-3.724c0.784-0.951,1.939-1.427,3.45-1.427c1.463,0,2.577,0.476,3.322,1.427
				c0.77,0.953,1.145,2.17,1.145,3.662v0.283H514.439z M519.888,1061.755c-0.105-0.735-0.395-1.322-0.855-1.745
				c-0.452-0.426-1.045-0.652-1.778-0.652c-0.36,0-0.686,0.063-0.996,0.182c-0.305,0.111-0.573,0.285-0.812,0.495
				c-0.242,0.224-0.443,0.485-0.592,0.773c-0.159,0.291-0.267,0.614-0.321,0.947H519.888z"/>
			<path fill="#FFFFFF" d="M527.67,1060.309v1.529h-4.479v-1.529H527.67z"/>
			<path fill="#FFFFFF" d="M537.205,1066.125h-0.043c-0.379,0.574-0.854,1.021-1.418,1.338c-0.566,0.325-1.179,0.485-1.826,0.485
				c-1.419,0-2.534-0.498-3.348-1.493c-0.818-0.998-1.235-2.225-1.235-3.678c0-1.381,0.419-2.551,1.252-3.516
				c0.832-0.99,1.912-1.489,3.247-1.489c1.375,0,2.484,0.628,3.328,1.878h0.043v-9.762h1.834v17.728h-1.834V1066.125z
				 M534.202,1066.308c0.964,0,1.727-0.327,2.265-1.002c0.559-0.674,0.843-1.503,0.843-2.469c0-0.948-0.284-1.765-0.843-2.433
				c-0.538-0.663-1.301-0.992-2.265-0.992c-0.914,0-1.649,0.331-2.204,1.018c-0.545,0.668-0.818,1.465-0.818,2.407
				c0,0.966,0.273,1.791,0.818,2.45C532.553,1065.969,533.288,1066.308,534.202,1066.308z"/>
			<path fill="#FFFFFF" d="M542.045,1059.242c0.996-0.979,2.208-1.47,3.642-1.47c1.427,0,2.63,0.491,3.603,1.47
				c0.999,0.975,1.493,2.195,1.493,3.619c0,1.425-0.494,2.629-1.493,3.621c-0.973,0.974-2.176,1.466-3.603,1.466
				c-1.434,0-2.646-0.492-3.642-1.466c-0.98-0.992-1.473-2.196-1.473-3.621C540.572,1061.438,541.064,1060.217,542.045,1059.242z
				 M542.41,1062.861c0,0.88,0.33,1.664,0.968,2.339c0.623,0.666,1.398,0.987,2.309,0.987c0.891,0,1.667-0.321,2.302-0.987
				c0.643-0.675,0.959-1.459,0.959-2.339c0-0.9-0.316-1.69-0.959-2.351c-0.635-0.655-1.411-0.98-2.302-0.98
				c-0.91,0-1.686,0.325-2.309,0.98C542.74,1061.171,542.41,1061.961,542.41,1062.861z"/>
			<path fill="#FFFFFF" d="M555.733,1064.15l2.81-6.621l2.802,6.621l2.783-6.095h2.076l-4.859,9.893l-2.802-6.393l-2.81,6.393
				l-4.863-9.893h2.082L555.733,1064.15z"/>
			<path fill="#FFFFFF" d="M568.968,1059.342h0.039c0.271-0.499,0.664-0.893,1.182-1.159c0.521-0.274,1.085-0.41,1.694-0.41
				c0.629,0,1.165,0.099,1.597,0.283c0.435,0.192,0.784,0.466,1.054,0.82c0.263,0.354,0.453,0.79,0.563,1.293
				c0.119,0.517,0.176,1.095,0.176,1.751v5.696h-1.836v-5.47c0-0.945-0.126-1.627-0.406-2.065c-0.273-0.451-0.834-0.669-1.701-0.669
				c-0.307,0-0.572,0.026-0.794,0.086c-0.212,0.063-0.406,0.152-0.572,0.263c-0.161,0.119-0.298,0.259-0.406,0.398
				c-0.112,0.149-0.213,0.315-0.303,0.495c-0.04,0.091-0.082,0.214-0.114,0.365c-0.037,0.145-0.07,0.302-0.092,0.464
				c-0.029,0.153-0.043,0.307-0.067,0.465c-0.003,0.162-0.012,0.28-0.012,0.378v0.902v4.388h-1.839v-9.561h1.839V1059.342z"/>
			<path fill="#FFFFFF" d="M579.729,1067.616h-1.841v-17.728h1.841V1067.616z"/>
			<path fill="#FFFFFF" d="M582.954,1059.242c0.985-0.979,2.205-1.47,3.639-1.47c1.428,0,2.627,0.491,3.617,1.47
				c0.99,0.975,1.48,2.195,1.48,3.619c0,1.425-0.49,2.629-1.48,3.621c-0.99,0.974-2.189,1.466-3.617,1.466
				c-1.434,0-2.653-0.492-3.639-1.466c-0.985-0.992-1.473-2.196-1.473-3.621C581.481,1061.438,581.969,1060.217,582.954,1059.242z
				 M583.323,1062.861c0,0.88,0.321,1.664,0.957,2.339c0.627,0.666,1.398,0.987,2.313,0.987c0.893,0,1.665-0.321,2.311-0.987
				c0.634-0.675,0.953-1.459,0.953-2.339c0-0.9-0.319-1.69-0.953-2.351c-0.646-0.655-1.418-0.98-2.311-0.98
				c-0.914,0-1.686,0.325-2.313,0.98C583.645,1061.171,583.323,1061.961,583.323,1062.861z"/>
			<path fill="#FFFFFF" d="M602.339,1067.616h-1.842v-1.491h-0.037c-0.818,1.209-1.904,1.823-3.251,1.823
				c-1.402,0-2.52-0.498-3.35-1.493c-0.816-0.998-1.226-2.225-1.226-3.678c0-1.381,0.412-2.551,1.247-3.516
				c0.83-0.99,1.921-1.489,3.263-1.489c1.368,0,2.471,0.628,3.316,1.878h0.037v-1.595h1.842V1067.616z M597.496,1066.308
				c0.974,0,1.719-0.327,2.267-1.002c0.558-0.674,0.837-1.503,0.837-2.469c0-0.948-0.279-1.765-0.837-2.433
				c-0.548-0.663-1.293-0.992-2.267-0.992c-0.911,0-1.648,0.331-2.202,1.018c-0.547,0.668-0.825,1.465-0.825,2.407
				c0,0.966,0.278,1.791,0.825,2.45C595.848,1065.969,596.585,1066.308,597.496,1066.308z"/>
			<path fill="#FFFFFF" d="M611.851,1066.125h-0.034c-0.385,0.574-0.865,1.021-1.421,1.338c-0.566,0.325-1.175,0.485-1.828,0.485
				c-1.42,0-2.538-0.498-3.354-1.493c-0.814-0.998-1.226-2.225-1.226-3.678c0-1.381,0.423-2.551,1.25-3.516
				c0.829-0.99,1.91-1.489,3.251-1.489c1.373,0,2.475,0.628,3.328,1.878h0.034v-9.762h1.842v17.728h-1.842V1066.125z
				 M608.852,1066.308c0.964,0,1.717-0.327,2.262-1.002c0.559-0.674,0.839-1.503,0.839-2.469c0-0.948-0.28-1.765-0.839-2.433
				c-0.545-0.663-1.298-0.992-2.262-0.992c-0.914,0-1.65,0.331-2.205,1.018c-0.543,0.668-0.819,1.465-0.819,2.407
				c0,0.966,0.276,1.791,0.819,2.45C607.201,1065.969,607.938,1066.308,608.852,1066.308z"/>
			<path fill="#FFFFFF" d="M618.96,1066.758c0,0.328-0.112,0.604-0.337,0.836c-0.24,0.232-0.522,0.354-0.85,0.354
				c-0.328,0-0.605-0.122-0.829-0.354c-0.235-0.232-0.354-0.508-0.354-0.836c0-0.312,0.118-0.59,0.354-0.826
				c0.224-0.236,0.501-0.353,0.829-0.353c0.327,0,0.609,0.116,0.85,0.353C618.848,1066.168,618.96,1066.446,618.96,1066.758z"/>
			<path fill="#FFFFFF" d="M629.008,1060.772c-0.76-0.856-1.677-1.285-2.73-1.285c-0.89,0-1.651,0.337-2.271,1.001
				c-0.618,0.676-0.911,1.471-0.911,2.349c0,0.997,0.293,1.807,0.911,2.43c0.642,0.645,1.439,0.963,2.385,0.963
				c0.98,0,1.857-0.435,2.617-1.267v2.347c-0.79,0.42-1.666,0.639-2.633,0.639c-1.417,0-2.631-0.492-3.641-1.457
				c-0.991-0.947-1.482-2.138-1.482-3.568c0-1.47,0.491-2.706,1.482-3.681c0.999-0.979,2.246-1.47,3.741-1.47
				c0.987,0,1.826,0.213,2.532,0.628V1060.772z"/>
			<path fill="#FFFFFF" d="M631.603,1059.242c0.996-0.979,2.209-1.47,3.636-1.47c1.428,0,2.641,0.491,3.611,1.47
				c1.002,0.975,1.492,2.195,1.492,3.619c0,1.425-0.49,2.629-1.492,3.621c-0.971,0.974-2.184,1.466-3.611,1.466
				c-1.427,0-2.64-0.492-3.636-1.466c-0.98-0.992-1.473-2.196-1.473-3.621C630.13,1061.438,630.622,1060.217,631.603,1059.242z
				 M631.971,1062.861c0,0.88,0.323,1.664,0.961,2.339c0.617,0.666,1.398,0.987,2.307,0.987c0.896,0,1.672-0.321,2.307-0.987
				c0.643-0.675,0.96-1.459,0.96-2.339c0-0.9-0.317-1.69-0.96-2.351c-0.635-0.655-1.41-0.98-2.307-0.98
				c-0.908,0-1.689,0.325-2.307,0.98C632.294,1061.171,631.971,1061.961,631.971,1062.861z"/>
			<path fill="#FFFFFF" d="M643.797,1059.262h0.041c0.271-0.437,0.625-0.79,1.092-1.069c0.456-0.284,0.936-0.42,1.435-0.42
				c1.191,0,2.106,0.563,2.764,1.698c0.297-0.518,0.713-0.934,1.238-1.244c0.519-0.305,1.094-0.454,1.697-0.454
				c2.117,0,3.169,1.375,3.169,4.122v5.722h-1.834v-5.414c0-0.241-0.008-0.486-0.038-0.719c-0.013-0.247-0.059-0.477-0.106-0.694
				c-0.06-0.232-0.136-0.439-0.246-0.63c-0.111-0.182-0.264-0.36-0.448-0.509c-0.245-0.163-0.563-0.238-0.938-0.238
				c-0.388,0-0.707,0.075-0.979,0.238c-0.267,0.148-0.462,0.338-0.608,0.555c-0.146,0.228-0.259,0.516-0.334,0.854
				c-0.08,0.338-0.135,0.648-0.155,0.922c-0.024,0.268-0.031,0.583-0.031,0.942v4.693h-1.842v-5.064c0-0.327,0-0.593-0.014-0.813
				c-0.02-0.227-0.059-0.494-0.127-0.82c-0.065-0.354-0.151-0.609-0.263-0.78c-0.111-0.188-0.284-0.353-0.506-0.508
				c-0.242-0.146-0.512-0.218-0.839-0.218c-0.942,0-1.549,0.401-1.824,1.217c-0.121,0.391-0.199,0.74-0.241,1.087
				c-0.044,0.334-0.062,0.735-0.062,1.207v4.693h-1.841v-9.561h1.841V1059.262z"/>
		</g>
		<g>
			<g>
				<path fill="#FFFFFF" d="M325.925,1061.977c8.674,0,17.343,0,26.016,0c0.786,0,0.786-1.214,0-1.214c-8.673,0-17.341,0-26.016,0
					C325.141,1060.763,325.141,1061.977,325.925,1061.977L325.925,1061.977z"/>
			</g>
			<g>
				<path fill="#FFFFFF" d="M672.06,1061.977c8.673,0,17.345,0,26.011,0c0.794,0,0.794-1.214,0-1.214c-8.666,0-17.338,0-26.011,0
					C671.273,1060.763,671.273,1061.977,672.06,1061.977L672.06,1061.977z"/>
			</g>
		</g>
	</g>
</g>
<g>
	<path fill="#00AEEF" d="M819.631,566.796c0,0,25.134,3.946,64.726-6.952c43.192-11.887,61.723-38.494,66.821-28.342
		c8.157,16.24-37.235,153.449-178.144,196.786L819.631,566.796z"/>
	<path fill="#069BC9" d="M811.631,713.085c32.815-53.026,39.775-113.604,40.87-146.887c-20.712,2.5-32.87,0.598-32.87,0.598
		l-46.597,161.492C786.804,724.053,799.647,718.911,811.631,713.085z"/>
	<path fill="#00AEEF" d="M533.289,366.916c-22.809,2.778-163.31,31.89-212.042,132.519c-6.784,14.01,61.39-11.392,91.42,43.912
		C434.986,584.451,533.289,366.916,533.289,366.916z"/>
	<path opacity="0.7" fill="#069BC9" d="M516.36,369.974c-19.391,34.401-61.207,101.36-118.946,153.941
		c5.662,5.008,10.866,11.354,15.252,19.432c22.319,41.104,120.622-176.431,120.622-176.431
		C529.952,367.322,524.081,368.298,516.36,369.974z"/>
	<path fill="#00AEEF" d="M279.793,635.19c3.29-2.871,3.797-18.672-13.606-31.014c-17.405-12.343,37.354-15.512,65.187,11.394
		C340.867,624.745,279.793,635.19,279.793,635.19z"/>
	<path fill="#00AEEF" d="M849.175,534.446c-3.469,31.314-9.927,62.883-19.927,93.667
		c-63.286,194.929-259.909,232.902-400.841,199.988c-99.514-23.236-169.056-91.413-201.308-129.46
		c-13.443-15.822-20.404-26.43-20.404-26.43c-27.847,46.833-101.262,59.491-107.084,53.793
		c-5.822-5.692,19.949-28.276,34.302-96.197c13.494-63.87-37.34-176.573-34.175-182.27c3.164-5.696,38.605,3.798,83.54,60.125
		c44.935,56.328,40.506,119.614,40.506,119.614c70.883,29.113,163.688-30.581,241.762-156.954
		c99.563-161.184,177.282-255.762,262.013-259.483C800.391,207.65,867.552,367.49,849.175,534.446z"/>
	<path fill="#D7EAF7" d="M849.175,534.446c-3.469,31.314-9.927,62.883-19.927,93.667
		c-63.286,194.929-259.909,232.902-400.841,199.988c-99.514-23.236-169.056-91.413-201.308-129.46
		c170.32,99.108,249.836-1.747,313.126-92.883c63.286-91.135,122.777-275.937,212.648-275.937
		C819.781,329.822,842.136,465.258,849.175,534.446z"/>
	<g>
		<path fill="#FFFFFF" d="M554.95,396.186c-37.014,7.823-47.686,44.751-43.056,66.643c4.626,21.892,26.618,51.46,66.25,43.084
			c37.995-8.032,46.042-44.828,41.529-66.181C615.517,420.082,592.618,388.223,554.95,396.186z"/>
		<path fill="#1B2D35" d="M567.113,408.572c-30,6.343-38.652,36.276-34.899,54.022c3.75,17.742,21.577,41.711,53.699,34.922
			c30.799-6.511,37.324-36.336,33.664-53.644C616.21,427.944,597.646,402.121,567.113,408.572z"/>
		<path fill="#FFFFFF" d="M579.972,409.638c-13.195,2.79-17,15.954-15.352,23.761c1.652,7.806,9.491,18.349,23.621,15.36
			c13.547-2.862,16.418-15.981,14.807-23.594C601.568,418.157,593.401,406.798,579.972,409.638z"/>
		<path fill="#FFFFFF" d="M574.357,453.31c-5.385,1.139-6.938,6.51-6.265,9.696c0.675,3.186,3.872,7.488,9.64,6.269
			c5.528-1.168,6.699-6.522,6.042-9.629C583.17,456.786,579.838,452.151,574.357,453.31z"/>
		<path fill="#1B2D35" d="M572.931,395.345c-14.405,0.021-28.492,4.725-39.374,13.339c-10.918,8.586-17.899,21.428-19.371,35.141
			c-1.855,13.664,1.606,27.809,9.45,39.297c3.912,5.736,8.803,10.879,14.493,15.017c5.66,4.178,12.156,7.354,19.252,8.742
			c-7.261-0.196-14.386-2.8-20.702-6.544c-6.315-3.804-11.935-8.83-16.438-14.768c-4.564-5.901-7.886-12.776-9.883-20.025
			c-1.923-7.266-2.42-14.934-1.482-22.377c0.968-7.429,3.214-14.798,7.046-21.324c3.833-6.501,9.01-12.204,15.137-16.484
			C543.249,396.71,558.646,393.133,572.931,395.345z"/>
	</g>
	<g>
		<path fill="#3D6E8A" d="M552.61,537.998c-9.723,3.372-21.805,4.521-31.805,0.485c-11.259-4.544-14.149-18.677-16.881-29.288
			c-0.134-0.52-0.953-0.417-0.939,0.128c0.263,11.383,1.37,27.3,12.561,33.636c11.376,6.437,27.327,3.09,37.641-3.633
			C554.389,538.543,554.109,537.479,552.61,537.998z"/>
		<path fill="#3D6E8A" d="M539.931,559.727c-9.723,3.369-21.806,4.521-31.806,0.487c-11.259-4.544-14.149-18.681-16.881-29.288
			c-0.134-0.519-0.953-0.418-0.94,0.127c0.264,11.386,1.37,27.302,12.562,33.635c11.375,6.437,27.326,3.093,37.642-3.633
			C541.709,560.271,541.428,559.207,539.931,559.727z"/>
		<path fill="#3D6E8A" d="M527.249,581.457c-9.723,3.369-21.806,4.521-31.806,0.484c-11.258-4.543-14.149-18.676-16.878-29.287
			c-0.136-0.52-0.955-0.416-0.942,0.129c0.263,11.384,1.37,27.299,12.563,33.633c11.375,6.438,27.327,3.093,37.64-3.631
			C529.03,581.999,528.745,580.938,527.249,581.457z"/>
	</g>
	<g>
		<path fill="#1B2D35" d="M710.837,302.571c-3.63-0.131-7.404,3.589-6.604,7.482c1.002,4.833,6.066,7.712,11.085,8.566
			c0.923,0.158,1.159-0.82,0.397-1.14c-2.964-1.239-9.374-6.24-6.559-9.535c1.59-1.857,6.455-0.293,9.94,3.219
			c3.243,3.27,5.373,9.552,6.84,14.436c0.249,0.822,0.944,0.447,0.88-0.481C726.476,320.328,724.616,303.075,710.837,302.571z"/>
		<path fill="#1B2D35" d="M781.715,297.704c3.613-0.425,7.672,2.98,7.187,6.924c-0.606,4.898-5.42,8.176-10.358,9.433
			c-0.903,0.229-1.219-0.726-0.482-1.105c2.849-1.475,8.836-6.976,5.765-10.032c-1.732-1.723-6.455,0.227-9.646,4.007
			c-2.969,3.523-4.584,9.958-5.657,14.938c-0.182,0.842-0.901,0.526-0.91-0.409C767.561,316.665,768.022,299.313,781.715,297.704z"
			/>
	</g>
	<path opacity="0.3" fill="#00AEEF" d="M542.886,601.863c-0.887,1.314-1.773,2.617-2.66,3.896
		C476.936,696.895,397.42,797.75,227.1,698.642c31.525,37.191,98.697,103.141,194.645,127.797c-9.017-12.61-1.8-26.57,24.732-39.407
		c50.581-24.475,96.411-185.166,96.411-185.166L542.886,601.863z"/>
	<path fill="#00AEEF" d="M384.535,655.123c0,0,3.376,38.395-3.375,78.898c-6.75,40.507-15.189,54.852-4.641,59.07
		c16.877,6.752,133.747-54.024,164.97-198.101L384.535,655.123z"/>
	<g>
		<path fill="#083340" d="M649.829,477.626c0,0,64.313,85.131,167.777-9.385c0,0,5.103,97.45-58.968,123.665
			C694.57,618.123,620.189,546.854,649.829,477.626z"/>
		<path fill="#083340" d="M657.658,470.112c0,0-24.615-15.284-35.416,16.035C622.242,486.146,637.902,464.895,657.658,470.112z"/>
		<path fill="#083340" d="M800.453,454.452c0,0,27.211-6.71,27.596,25.726C828.049,480.178,845.58,439.16,800.453,454.452z"/>
		<path fill="#083340" d="M662.133,603.022c0,0,65.268,54.371,134.221-11.116C796.354,591.906,733.343,639.75,662.133,603.022z"/>
		<path fill="#FFFFFF" d="M657.658,513.26c8.109,4.477,15.939-10.625,15.939-10.625s-1.118,28.908,7.551,27.039
			c8.668-1.872,18.176-15.572,18.176-15.572s1.958,20.166,11.466,18.751c9.507-1.415,19.617-15.396,19.617-15.396
			s2.474,16.811,12.259,15.396c9.787-1.415,19.016-22.106,19.016-22.106s1.197,15.378,12.067,10.065
			c10.86-5.313,12.261-21.575,12.261-21.575s1.398,12.349,10.344,8.712c8.949-3.634,11.186-23.488,11.186-23.488
			s1.109,3.827,5.313,4.194c4.204,0.367,4.754-20.414,4.754-20.414c-103.464,94.516-167.777,9.385-167.777,9.385
			S649.549,508.787,657.658,513.26z"/>
		<path fill="#E86B7B" d="M758.639,591.906c16.42-6.719,28.27-18.122,36.853-31.354c-20.423-9.261-46.979-11.646-72.4-6.747
			c-23.547,4.536-36.656,15.698-43.884,25.605C701.499,596.363,731.017,603.204,758.639,591.906z"/>
	</g>
	<path fill="#05A1D1" d="M98.799,723.462c31.597-24.546,56.156-66.705,58.294-126.006c2.54-70.451-38.918-126.663-57.412-148.111
		c2.118,15.738,47.01,119.984,34.232,180.463C121.138,690.261,99.338,714.783,98.799,723.462z"/>
	<path opacity="0.3" fill="#D7EAF7" d="M475.506,394.706c0,0-82.644,24.242-133.224,91.44
		C342.282,486.146,371.329,417.177,475.506,394.706z"/>
	<path opacity="0.3" fill="#D7EAF7" d="M726.821,235.179c0,0-38.432-22.027-86.871,25.086
		c-48.439,47.113-90.657,129.713-90.657,129.713S658.383,222.942,726.821,235.179z"/>
</g>
</svg>
